/* XPM */
static char *result[] = {
/* columns rows colors chars-per-pixel */
"64 64 7 1 ",
"  c #2A173B",
". c #3F2C5F",
"X c #443F7B",
"o c #4C5C87",
"O c #69809E",
"+ c #95C5AC",
"@ c None",
/* pixels */
"@@@@@@@@@@@@@@@@@@@@@@@@@@@@@@@@@@@@@@@@@@@@@@@@@@@@@@@@@@@@@@@@",
"@@@@@@@@@@@@@@@@@@@@@@@@@@@@@@@@@@@@@@@@@@@@@@@@@@@@@@@@@@@@@@@@",
"@@@@@@@@@@@@@@@@@@@@@@@@@@@@@@@@@@@@@@@@@@@@@@@@@@@@@@@@@@@@@@@@",
"@@@@@@@@@@@@@@@@@@@@@@@@@@@@@@@@@@@@@@@@@@@@@@@@@@@@@@@@@@@@@@@@",
"@@@@@@@@@@@@@@@@@@@@@@@@@@@@@@@@@@@@@@@@@@@@@@@@@@@@@@@@@@@@@@@@",
"@@@@@@@@@@@@@@@@@@@@@@@@@@@@@@@@@@@@@@@@@@@@@@@@@@@@@@@@@@@@@@@@",
"@@@@@@@@@@@@@@@@@@@@@@@@@@@@@@@@@@@@@@@@@@@@@@@@@@@@@@@@@@@@@@@@",
"@@@@@@@@@@@@@@@@@@@@@@@@@@@@@@@@@@@@@@@@@@@@@@@@@@@@@@@@@@@@@@@@",
"@@@@@@@@@@@@@@@@@@@+++@@@@@@@@@@@@@@@@@@@@@@@@@@@@@@@@@@@@@@@@@@",
"@@@@@@@@@@@@@+++@O++O@@@@@@@@@@@@@@@@@@@@@@@@@@@@@@@@@@@@@@@@@@@",
"@@@@@@@@@@@@O+O@XOOO@@@@@@@@@@@@@@@@@@@@@@@@@@@@@@@@@@@@@@@@@@@@",
"@@@@@@@@@@@ooo.XOOo@@@@@@@@@@@@@@@@@@@@@@@@@@@@@@@@@@@@@@@@@@@@@",
"@@@@@@@@@.X.XX XOoX@@@@@+++@@@@@@@@@@@@@@@@@@@@@@@@@@@@@@@@@@@@@",
"@@@@@@@@.X.+++.ooX.@@@O++O@@@@@+@@@@@@@@@@@@@@@@@@@@@@@@@@@@@@@@",
"@@@@@@@oO O+O .XX. O@XOOO@@@@@++@@@@@@@@@@@@@@@@@@@@@@@@@@@@@@@@",
"@@@@@@.o XOO   ..   XOOo@@@@@+++@@@@@@@@@@@@@+++@@@@@@@@@@@@@@@@",
"@@@@@@.o.oX        .XOoX@@@@OO+o@@@@@@@@+++@@@O++O@@@@@@@@@@@@@@",
"@@@@@.o..oX        .ooX.O@@XOOOo@@@@@@@@@O++O@@OOOX@@@@@@+@@@@@@",
"@@@@@.o.XX.  +++   .XX.  .XOOoo@@@@@@@@@@@OOOX@@oOOX@@@@@+@@@@@@",
"@@@@@.X.XX O++O     ..   .XOoXo@@@@@@@@@@@@oOOX@XoOX.@@@oO@@@@@@",
"@@@@.XXX. XOOO           .ooX.@@@@@@@@@OX..XoOX..ooo.@@XoX@@@@@@",
"@@@@.XXX.XOOo     +++    .XX..X@@@@@@OX     ooo. .XX..XXoX@@@@@@",
"@@@@ XOX.XOoX   O++O    + ..   X@@@OX       .XX.  .. .Xo..+@@@@@",
"@@@@@ oX.ooX   XOOO    ++       .@o          ..      .XX @+@@@@@",
"@@@@@ Xo.XX.. XOOo    O++        X          +++      .. .O+@@@@@",
"@@@@@ XXo..X..XOoX   XO+O                    O++O      .oOX@@@@@",
"@@@@@@ OOoXXX.ooX.  XoOOo              +++    OOOX    .XooX@@@@@",
"@@@@@@  XOoXo.XX...XXOOO                O++O   oOOX  .XXX..@@@@@",
"@@@@@@@  XOOXoo.XX.XoOoO                 OOOX  XoOX...XX..@@@@@@",
"@@@@@@@@  XXooXoXX.XXXXX.                 oOOX  Xoo.X.... @@@@@@",
"@@@@@@@@@  .XOoooOX....XoO                XoOX...XX.OXXOO @@@@@@",
"@@@@@@@@@@ ...XoOoooooooooO.           .O..Xoo.XX..XOOXX @@@@@@@",
"@@@@@@@@@@@ .X...OOoooooOXoo.       .O.OOXX.XX.XXOXOX   @@@@@@@@",
"@@@@@@@@@@@@  .Xo.....XOooXoo.    ..OOooXoXX..XOX..  @@@@@@@@@@@",
"@@@@@@@@@@@@@@  ..Xo....XXOOoo.  .XOXooooooOXX....X @@@@@@@@@@@@",
"@@@@@@@@@@@@@@@@@  ..X.....XoOo..oOOooO.......OooX @@@@@@@@@@@@@",
"@@@@@@@@@@@@@@@@@@@@     ..XXooooOOXoO.OoXXXXX.  @@@@@@@@@@@@@@@",
"@@@@@@@@@@@@@@@@@@@@@@@@@ ...XXoXOOoX....X    @@@@@@@@@@@@@@@@@@",
"@@@@@@@@@@@@@@@@@@@@@@@@@@ .XXoXooooX..   @@@@@@@@@@@@@@@@@@@@@@",
"@@@@@@@@@@@@@@@@@@@@@@@@@@@ .XOOXXOX.. @@@@@@@@@@@@@@@@@@@@@@@@@",
"@@@@@@@@@@@@@@@@@@@@@@@@@@@ X.XXX.X.X.@@@@@@@@@@@@@@@@@@@@@@@@@@",
"@@@@@@@@@@@@@@@@@@@@@@@@@@.....XXX...X.@@@@@@@@@@@@@@@@@@@@@@@@@",
"@@@@@@@@@@@@@@@@@@@@@@@@@.X....X.X...XX.@@@@@@@@@@@@@@@@@@@@@@@@",
"@@@@@@@@@@@@@@@@@@@@@@@@XX.X.X...X....X..@@@@@@@@@@@@@@@@@@@@@@@",
"@@@@@@@@@@@@@@@@@@@@@@@...X.X......XXX.X..@@@@@@@@@@@@@@@@@@@@@@",
"@@@@@@@@@@@@@@@@@@@@@oXX............XXX...X.@@@@@@@@@@@@@@@@@@@@",
"@@@@@@@@@@@@@@@@@@@oXXX.....X.....X..XXX.XX.X.@@@@@@@@@@@@@@@@@@",
"@@@@@@@@@@@@@@@@@XXXXX.....X..X...XXX.XoX.oX..X.@@@@@@@@@@@@@@@@",
"@@@@@@@@@@@@@@@XXoo......XX..X.X..XX...XoX.oX..oX.@@@@@@@@@@@@@@",
"@@@@@@@@@@@@XXXoo.......XX..XX.X..XXX...XoX.oX....Xo.@@@@@@@@@@@",
"@@@@@@@@@@XXooo.......XXX...XXX...XXXX...XoXXXXX...ooX.@@@@@@@@@",
"@@@@@@@XXXooo.....o..XXX...XXXXo..XXXXXX...XXX.X.oo..ooX..@@@@@@",
"@@@XXXXOOOo......ooXXX....XXXXoX.XXooXoXX...XXX....XX.oooOX.o@@@",
"@XXOOOOO.......ooXXXX....XXoXooX.XXXooooXX...ooXXXo.XXXXooOOo.@@",
"@@         ..OOoXXXX....oXoooooX.XoXXooXoXX..XXoXXXo.         @@",
"@@@@@@@@@@..OOoXX......oooooooXX.Xo.XOoooo.X.XXXooXoo. @@@@@@@@@",
"@@@@@@@@@XOOOXX..     .oOOOoo.XX.XOo.Xoooo.    XXXXoooo.@@@@@@@@",
"@@@@@@@XoOoXX  ..@@@@.oOOOoo.ooOoXoOo.XooOO.@@@.    oOOO. @@@@@@",
"@@@@@@ oooX .@@@@@@@.oOOooo..oOXX.ooO.XXooOO.@@@@@@@. oooo @@@@@",
"@@@@@@  ...@@@@@@@.XOOoooo..oOXX  XXoOOXXXXOO.@@@@@@@@.    @@@@@",
"@@@@@@@@@@@@@@@@.XoOoo ....XOXX.@@.XXOo...XXOOXo@@@@@@@@@@@@@@@@",
"@@@@@@@@@@@@@@@ ooo  .@@@@XoX .@@@@@. oo.@ XXXOO @@@@@@@@@@@@@@@",
"@@@@@@@@@@@@@@@   .@@@@@@@   @@@@@@@@@   @@      @@@@@@@@@@@@@@@",
"@@@@@@@@@@@@@@@@@@@@@@@@@@@@@@@@@@@@@@@@@@@@@@@@@@@@@@@@@@@@@@@@"
};
