/* XPM */
static char *result[] = {
/* columns rows colors chars-per-pixel */
"64 64 6 1 ",
"  c #2A173B",
". c #3F2C5F",
"X c #443F7B",
"o c #4C5C87",
"O c #69809E",
"+ c None",
/* pixels */
"++++++++++++++++++++++++++++++++++++++++++++++++++++++++++++++++",
"++++++++++++++++++++++++++++++++++++++++++++++++++++++++++++++++",
"++++++++++++++++++++++++++++++++++++++++++++++++++++++++++++++++",
"++++++++++++++++++++++++++++++++++++++++++++++++++++++++++++++++",
"++++++++++++++++++++++++++++++++++++++++++++++++++++++++++++++++",
"++++++++++++++++++++++++++++++++++++++++++++++++++++++++++++++++",
"++++++++++++++++++++++++++++++++++++++++++++++++++++++++++++++++",
"++++++++++++++++++++++++++++++++++++++++++++++++++++++++++++++++",
"++++++++++++++++++++++++++++++++++++++++++++++++++++++++++++++++",
"++++++++++++++++++++++++++++++++++++++++++++++++++++++++++++++++",
"++++++++++++++++++++++++++++++++++++++++++++++++++++++++++++++++",
"++++++++++++++++++++++++++++++++++++++++++++++++++++++++++++++++",
"++++++++++++++++++++++++++++++++++++++++++++++++++++++++++++++++",
"++++++++++++++++++++++++++++++++++++++++++++++++++++++++++++++++",
"++++++++++++++++++++++++++++++++++++++++++++++++++++++++++++++++",
"++++++++++++++++++++++++++++++++++++++++++++++++++++++++++++++++",
"++++++++++++++++++++++++++++++++++++++++++++++++++++++++++++++++",
"++++++++++++++++++++++++++++++++++++++++++++++++++++++++++++++++",
"+++++++++++++++++++++++++++++oooOOOO++++++++++++++++++++++++++++",
"+++++++++++++++++++++++++++ooOOOOoOoOOO+++++++++++++++++++++++++",
"++++++++++++++++++++++++++ooOXoXOOoXoooO++++++++++++++++++++++++",
"+++++++++++++++++++++++++oOoooooXXXOXoooO+++++++++++++++++++++++",
"++++++++++++++++++++++++OOXXooooXXooOXoOoO++++++++++++++++++++++",
"+++++++++++++++++++++++OXXooXXoOOXOoOoXOXOO+++++++++++++++++++++",
"+++++++++++++++++++++++XoooXoXXOOOXOoXoXOXO+++++++++++++++++++++",
"++++++++++++++++++++++oXoXXoXXooooXXXoooXXOO++++++++++++++++++++",
"++++++++++++++++++++++OXoXoXoooooooXOoooXXOO++++++++++++++++++++",
"++++++++++++++++++++++XOooXXooOoooooXOoOoXoO++++++++++++++++++++",
"++++++++++++++++++++++XOXXooXXoooooOXXOXXXoO++++++++++++++++++++",
"++++++++++++++++++++++XXXooooXooXOOooXOooXXX++++++++++++++++++++",
"++++++++++++++++++++++XXXoXoXOoXoXXXOOXXXXXX++++++++++++++++++++",
"++++++++++++++++++++++XXXXXXXOXoooXoOoXOXXXX++++++++++++++++++++",
"+++++++++++++++++++++++XXXXXXoXXOXoOooXXoXXX++++++++++++++++++++",
"+++++++++++++++++++++++.XXXXXXXXOXXOooXOXX.+++++++++++++++++++++",
"++++++++++++++++++++++++.XXXoXXXXooXOXOXX.++++++++++++++++++++++",
"+++++++++++++++++++++++++.XXXoXXXoOXXOOX.+++++++++++++++++++++++",
"++++++++++++++++++++++++++.XXXoXXOoXOXX.++++++++++++++++++++++++",
"+++++++++++++++++++++++++++..XXoXOOoXX.+++++++++++++++++++++++++",
"++++++++++++++++++++++++++++.XXXXoXXX.++++++++++++++++++++++++++",
"++++++++++++++++++++++++++++.XXXXXXX.+++++++++++++++++++++++++++",
"+++++++++++++++++++++++++++.X.XXX.X.X.++++++++++++++++++++++++++",
"++++++++++++++++++++++++++.....XXX...X.+++++++++++++++++++++++++",
"+++++++++++++++++++++++++.X....X.X...XX.++++++++++++++++++++++++",
"++++++++++++++++++++++++XX.X.X...X....X..+++++++++++++++++++++++",
"+++++++++++++++++++++++...X.X......XXX.X..++++++++++++++++++++++",
"+++++++++++++++++++++oXX............XXX...X.++++++++++++++++++++",
"+++++++++++++++++++oXXX.....X.....X..XXX.XXXX.++++++++++++++++++",
"+++++++++++++++++oXXXX.....X..X...XXX.XoX.oXXXXo++++++++++++++++",
"+++++++++++++++oXOOX....XXX..X.X..XXX..XoX.oX.XOXo++++++++++++++",
"++++++++++++ooXOOoXX.XXXXX..XX.X..XXXX..XoX.oX...OXoo+++++++++++",
"++++++++++ooOOOooXXXXXXXX...XXX...oXXX...XoXXXXoX..OOXo+++++++++",
"+++++++ooXOOOoooXXOXXooo...XXXXo..oXXXXX..XXXX.X.XoOOOOXoo++++++",
"+++ooXXOOOOoooXXXOOoooXX..XXXXoX.XoOXXOXX..oXXO....XXooOOOXoo+++",
"+ooOOOOOoooooXOOOooooXXX.XXOXooO.XooOoXOXX..XooOOOo.XXXXooOOo.++",
"++         .XOOOoooXXXX.oXOOoooO.XOooOOXXXX.XXXoOOOO.         ++",
"++++++++++XXOOOooXXXXX.oOOOOooOX.XO.XOoOOO.X.XXXoOOOo. +++++++++",
"+++++++++XOOOooXX     .OOOOoo.OX.XOo.XooOO.    XXXXOOOO.++++++++",
"+++++++XXOooo  ..++++.oOOOoo.ooOoXoOo.XooOO.+++.    oOOO. ++++++",
"++++++ oooo .+++++++.oOOooo..oOXX.ooO.XXooOO.+++++++. oooo +++++",
"++++++  ...+++++++.XOOoooo..oOXX  XXoOOXXXXOO.++++++++.    +++++",
"++++++++++++++++.XoOoo ....XOXX.++.XXOo...XXOOXo++++++++++++++++",
"+++++++++++++++ ooo  .++++XoX .+++++. oo.+ XXXOO +++++++++++++++",
"+++++++++++++++   .+++++++   +++++++++   ++      +++++++++++++++",
"++++++++++++++++++++++++++++++++++++++++++++++++++++++++++++++++"
};
