/* XPM */
static char *result[] = {
/* columns rows colors chars-per-pixel */
"64 64 7 1 ",
"  c #2A173B",
". c #3F2C5F",
"X c #443F7B",
"o c #4C5C87",
"O c #69809E",
"+ c #95C5AC",
"@ c None",
/* pixels */
"@@@@@@@@@@@@@@@@@@@@@@@@@@@@@@@@@@@@@@@@@@@@@@@@@@@@@@@@@@@@@@@@",
"@@@@@@@@@@@@@@@@@@@@@@@@@@@@@......@@@@@@@@@@@@@@@@@@@@@@@@@@@@@",
"@@@@@@@@@@@@@@@@@@@@@@@@@@@@..oooOO..@@@@@@@@@@@@@@@@@@@@@@@@@@@",
"@@@@@@@@@@@@@@@@@@@@@@@@@@@..ooOOO+++.@@@@@@@@@@@@@@@@@@@@@@@@@@",
"@@@@@@@@@@@@@@@@@@@@@@@@@.. .XoooOO+++.@@@@@@@@@@@@@@@@@@@@@@@@@",
"@@@@@@@@@@@@@@@@@@@@@@@@.ooX .XXX.  ...@@@@@@@@@@@@@@@@@@@@@@@@@",
"@@@@@@@@@@@@@@@@@@@@@@@.oXoXX ....XX o.@@@@@@@@@@@@@@@@@@@@@@@@@",
"@@@@@@@@@@@@@@@@@@@@@@.OooXX ++OOooo. O.@@@@@@@@@@@@@@@@@@@@@@@@",
"@@@@@@@@@@@@@@@@@@@@@.XooX +++OOOooX. OO.@@@@@@@@@@@@@@@@@@@@@@@",
"@@@@@@@@@@@@@@@@@@@@.XoXX +++++OOXX.. oOO.@@@@@@@@@@@@@@@@@@@@@@",
"@@@@@@@@@@@@@@@@@@@@ooXOo      ..... ..oOO.@@@@@@@@@@@@@@@@@@@@@",
"@@@@@@@@@@@@@@@@@@@.o.XOOXoOo .XXXXX+  .oOX@@@@@@@@@@@@@@@@@@@@@",
"@@@@@@@@@@@@@@@@@@@.oXXOXX.o .XooooO+++ .oOX@@@@@@@@@@@@@@@@@@@@",
"@@@@@@@@@@@@@@@@@@.oXXoOXoXo .XXooooO+++ XX.@@@@@@@@@@@@@@@@@@@@",
"@@@@@@@@@@@@@@@@@@.OXXOXOXXOo .XXX.     .oXX@@@@@@@@@@@@@@@@@@@@",
"@@@@@@@@@@@@@@@@@.oOXoOOXOOooo ...  ooXXooOOX@@@@@@@@@@@@@@@@@@@",
"@@@@@@@@@@@@@@@@@.OXXOOOOOX  +oX.... ooOXoOXX@@@@@@@@@@@@@@@@@@@",
"@@@@@@@@@@@@@@@@@.OXXOooo  +++OOooXXX oXOXOX.@@@@@@@@@@@@@@@@@@@",
"@@@@@@@@@@@@@@@@.oOXoOXo ++++OOoXXXX. oXOXOX.@@@@@@@@@@@@@@@@@@@",
"@@@@@@@@@@@@@@@@.oXXoXX.      ooXXXX oooXOoOXX@@@@@@@@@@@@@@@@@@",
"@@@@@@@@@@@@@@@@.XX.XX.O..O.. .XO++  .ooXOOOX.@@@@@@@@@@@@@@@@@@",
"@@@@@@@@@@@@@@@@ OX.XXOXXXXX .oooO+++ ..oOOOX.@@@@@@@@@@@@@@@@@@",
"@@@@@@@@@@@@@@@@ XoX.XO.XOX. .XXXooO+++ ooOOX @@@@@@@@@@@@@@@@@@",
"@@@@@@@@@@@@@@@@ XoX.ooXOX... ...XXO   XoOX.X @@@@@@@@@@@@@@@@@@",
"@@@@@@@@@@@@@@@@ .XX.XooO...   oX.... ..XXo.o @@@@@@@@@@@@@@@@@@",
"@@@@@@@@@@@@@@@@@.XX..oOO.  +++OOooXXX X.Xo.X @@@@@@@@@@@@@@@@@@",
"@@@@@@@@@@@@@@@@@ .Xo.XOX ++++OOoXXXX. OX.X.X @@@@@@@@@@@@@@@@@@",
"@@@@@@@@@@@@@@@@@@.X...XXX     ooXXXX  OXXOo. @@@@@@@@@@@@@@@@@@",
"@@@@@@@@@@@@@@@@@@.X.o.XXXXo. .XXX    ...X..o @@@@@@@@@@@@@@@@@@",
"@@@@@@@@@@@@@@@@@@@.X...Xooo .XoooOO++ .oO..o @@@@@@@@@@@@@@@@@@",
"@@@@@@@@@@@@@@@@@@@..X...ooo .XooOO++ .oX..oX@@@@@@@@@@@@@@@@@@@",
"@@@@@@@@@@@@@@@@@@@@ ....XoX .XXooo  .oXo.XX @@@@@@@@@@@@@@@@@@@",
"@@@@@@@@@@@@@@@@@@@@@ X.X.XOX ...X  ..Xo..X @@@@@@@@@@@@@@@@@@@@",
"@@@@@@@@@@@@@@@@@@@@@@ ...OXXo     ..Xo..X @@@@@@@@@@@@@@@@@@@@@",
"@@@@@@@@@@@@@@@@@@@@@@@ ...XoX     .XO..O @@@@@@@@@@@@@@@@@@@@@@",
"@@@@@@@@@@@@@@@@@@@@@@@@ ...oX.   .XO.X. @@@@@@@@@@@@@@@@@@@@@@@",
"@@@@@@@@@@@@@@@@@@@@@@@@@ .o.X.o X.O...X@@@@@@@@@@@@@@@@@@@@@@@@",
"@@@@@@@@@@@@@@@@@@@@@@@@@@ ..XX.X.OX.O. @@@@@@@@@@@@@@@@@@@@@@@@",
"@@@@@@@@@@@@@@@@@@@@@@@@@@@ ..o..oX.X. @@@@@@@@@@@@@@@@@@@@@@@@@",
"@@@@@@@@@@@@@@@@@@@@@@@@@@@ ..OO.X....@@@@@@@@@@@@@@@@@@@@@@@@@@",
"@@@@@@@@@@@@@@@@@@@@@@@@@@@ X....X.X. @@@@@@@@@@@@@@@@@@@@@@@@@@",
"@@@@@@@@@@@@@@@@@@@@@@@@@@.....X.X...X.@@@@@@@@@@@@@@@@@@@@@@@@@",
"@@@@@@@@@@@@@@@@@@@@@@@@@.X....X.....XX.@@@@@@@@@@@@@@@@@@@@@@@@",
"@@@@@@@@@@@@@@@@@@@@@@@@XX.X.X...X....X..@@@@@@@@@@@@@@@@@@@@@@@",
"@@@@@@@@@@@@@@@@@@@@@@@...X.X......XXX.X..@@@@@@@@@@@@@@@@@@@@@@",
"@@@@@@@@@@@@@@@@@@@@@XXX............XXX...X.@@@@@@@@@@@@@@@@@@@@",
"@@@@@@@@@@@@@@@@@@@XXXX.....X.....X..XXX.XXXX.@@@@@@@@@@@@@@@@@@",
"@@@@@@@@@@@@@@@@@XXXXX.....X..X...XXX.XoX.oXXXXX@@@@@@@@@@@@@@@@",
"@@@@X@@@@@@@@@@XXXXX....XXX..X.X..XXX..XoX.oX.XXXX@@@@@@@@@@@@@@",
"@@@XO@@@@@@@XXXXXXXX.XXXXX..XX.X..XXXX..XoX.oX...XXXX@@@@@@@X@@@",
"@@@Xo@@@@@oooooooXXXXXXXX...XXX...oXXX...XoXXXXoX..XoXo@@@@@X.@@",
"@@@XoO@@oXOOOoooXXXXXXXX...XXXXo..oXXXXX..XXXX.X.ooooooXX@@XO.@@",
"@@@.oooOOOOoooXXXoooXXXX..XXXXoX.XooXXoXX..oXXo....XXooOOXXoo.@@",
"@@@@.oOOoooooXOOOooooXXX.XXoXooooXooooXoXX..Xoooooo.XXXXoooo.@@@",
"@@@@@...   .XOOOoooXXXX.oXOooooo.XOooOOXXXX.XXXoooOO.    ...@@@@",
"@@@@@@@@@@XXOOOooXXXXX.oOOOOooOX.XO.XOoOOX.X.XXXoOOOo. @@@@@@@@@",
"@@@@@@@@@XOOOooXX     .OOOOoo.OX.XOo.XooOOX    XXXXOOOO.@@@@@@@@",
"@@@@@@@XXOooo  ..@@@@.oOOOoo.ooOoXoOo.XooOX@@@@.    oOOO. @@@@@@",
"@@@@@@ oooo .@@X@@@@.oOOooo..oOXX.ooO.XXooOX@@@X@@@@. oooo @@@@@",
"@@@@@@  ...@@@XoO@@XOOoooo..oOXX  XXoOOXXXoOX@OX.@@@@@.    @@@@@",
"@@@@@@@@@@@@@@XooOOOoo ....XOXX.@@.XXOo...XoOOoX.@@@@@@@@@@@@@@@",
"@@@@@@@@@@@@@@@.oooo .@@@@XoX .@@@@@. oo.@ XooX.@@@@@@@@@@@@@@@@",
"@@@@@@@@@@@@@@@@  . @@@@@@   @@@@@@@@@   @@ ...@@@@@@@@@@@@@@@@@",
"@@@@@@@@@@@@@@@@@@@@@@@@@@@@@@@@@@@@@@@@@@@@@@@@@@@@@@@@@@@@@@@@"
};
